<?xml version="1.0" encoding="utf-8"?>
<!-- Generator: Adobe Illustrator 25.0.1, SVG Export Plug-In . SVG Version: 6.00 Build 0)  -->
<svg version="1.1" id="Layer_1" xmlns="http://www.w3.org/2000/svg" xmlns:xlink="http://www.w3.org/1999/xlink" x="0px" y="0px"
	 viewBox="0 0 68 20" style="enable-background:new 0 0 68 20;" xml:space="preserve">
<path d="M0,5.61h3.22l0.26,9.45l5.6-9.5h2.7l0.52,9.5l5.39-9.45h3.19l-8.27,13.93H9.77l-0.55-9.45l-5.66,9.45h-2.8L0,5.61z
	 M21.81,5.61h3.17l-3.72,13.82h-3.17L21.81,5.61z M28.25,19.67c-1.12,0-1.97-0.24-2.57-0.73c-0.59-0.49-0.89-1.15-0.89-1.99
	c0-0.54,0.08-1.07,0.24-1.6l1.86-7.02h-1.75l0.73-2.72h1.75l1.02-3.8h3.17l-1.02,3.8h3.69l-0.73,2.72h-3.69l-1.78,6.68
	c-0.04,0.14-0.06,0.28-0.08,0.42c-0.02,0.14-0.03,0.26-0.03,0.37c0,0.72,0.46,1.07,1.39,1.07c0.65,0,1.32-0.15,2.02-0.45l-0.73,2.75
	C30.11,19.51,29.25,19.67,28.25,19.67z M36.92,0.33h3.17L38.2,7.41c0.56-0.56,1.17-1.05,1.85-1.47c0.67-0.41,1.45-0.62,2.34-0.62
	c1.29,0,2.32,0.37,3.08,1.11s1.14,1.75,1.14,3.02c0,0.37-0.04,0.76-0.13,1.19c-0.09,0.43-0.18,0.84-0.29,1.24l-1.99,7.54h-3.17
	l2.04-7.65c0.07-0.23,0.12-0.47,0.16-0.72c0.03-0.25,0.05-0.47,0.05-0.67c0-0.7-0.21-1.23-0.63-1.61c-0.42-0.37-1.01-0.56-1.78-0.56
	c-0.89,0-1.68,0.32-2.36,0.95c-0.68,0.64-1.16,1.47-1.44,2.49l-2.09,7.76h-3.17L36.92,0.33z M53.88,5.61h3.17l-3.72,13.82h-3.17
	L53.88,5.61z M60.33,19.67c-1.12,0-1.97-0.24-2.57-0.73c-0.59-0.49-0.89-1.15-0.89-1.99c0-0.54,0.08-1.07,0.24-1.6l1.86-7.02h-1.75
	l0.73-2.72h1.75l1.02-3.8h3.17l-1.02,3.8h3.69l-0.73,2.72h-3.69l-1.78,6.68c-0.04,0.14-0.06,0.28-0.08,0.42
	c-0.02,0.14-0.03,0.26-0.03,0.37c0,0.72,0.46,1.07,1.39,1.07c0.65,0,1.32-0.15,2.02-0.45l-0.73,2.75
	C62.18,19.51,61.32,19.67,60.33,19.67z M56.04,0.84c-0.98,0-1.78,0.8-1.78,1.78s0.8,1.78,1.78,1.78c0.98,0,1.78-0.8,1.78-1.78
	S57.03,0.84,56.04,0.84z M66.22,15.86c-0.98,0-1.78,0.8-1.78,1.78c0,0.98,0.8,1.78,1.78,1.78c0.98,0,1.78-0.8,1.78-1.78
	C68,16.66,67.2,15.86,66.22,15.86z M23.97,0.84c-0.98,0-1.78,0.8-1.78,1.78s0.8,1.78,1.78,1.78s1.78-0.8,1.78-1.78
	S24.96,0.84,23.97,0.84z"/>
</svg>
