<?xml version="1.0" encoding="utf-8"?>
<!-- Generator: Adobe Illustrator 25.3.1, SVG Export Plug-In . SVG Version: 6.00 Build 0)  -->
<svg version="1.1" id="Layer_1" xmlns="http://www.w3.org/2000/svg" xmlns:xlink="http://www.w3.org/1999/xlink" x="0px" y="0px"
	 viewBox="0 0 68 20" style="enable-background:new 0 0 68 20;" xml:space="preserve">
<style type="text/css">
	.st0{fill:#F9F9F4;}
</style>
<path class="st0" d="M0,5.6h3.2L3.5,15l5.6-9.5h2.7l0.5,9.5l5.4-9.4h3.2l-8.3,13.9H9.8l-0.6-9.4l-5.7,9.4H0.8L0,5.6z M21.8,5.6H25
	l-3.7,13.8h-3.2L21.8,5.6z M28.2,19.7c-1.1,0-2-0.2-2.6-0.7s-0.9-1.1-0.9-2c0-0.5,0.1-1.1,0.2-1.6l1.9-7H25l0.7-2.7h1.8l1-3.8h3.2
	l-1,3.8h3.7l-0.7,2.7H30L28.3,15c0,0.1-0.1,0.3-0.1,0.4s0,0.3,0,0.4c0,0.7,0.5,1.1,1.4,1.1c0.6,0,1.3-0.1,2-0.5l-0.7,2.8
	C30.1,19.5,29.2,19.7,28.2,19.7z M36.9,0.3h3.2l-1.9,7.1c0.6-0.6,1.2-1.1,1.8-1.5c0.7-0.4,1.5-0.6,2.3-0.6c1.3,0,2.3,0.4,3.1,1.1
	s1.1,1.8,1.1,3c0,0.4,0,0.8-0.1,1.2s-0.2,0.8-0.3,1.2l-2,7.5H41l2-7.6c0.1-0.2,0.1-0.5,0.2-0.7c0-0.2,0-0.5,0-0.7
	c0-0.7-0.2-1.2-0.6-1.6c-0.4-0.4-1-0.6-1.8-0.6c-0.9,0-1.7,0.3-2.4,0.9c-0.7,0.6-1.2,1.5-1.4,2.5l-2,7.9h-3.2L36.9,0.3z M53.9,5.6
	h3.2l-3.7,13.8h-3.2L53.9,5.6z M60.3,19.7c-1.1,0-2-0.2-2.6-0.7s-0.9-1.1-0.9-2c0-0.5,0.1-1.1,0.2-1.6l1.9-7h-1.8L58,5.6h1.8l1-3.8
	H64l-1,3.8h3.7L66,8.3h-3.7L60.4,15c0,0.1-0.1,0.3-0.1,0.4s0,0.3,0,0.4c0,0.7,0.5,1.1,1.4,1.1c0.7,0,1.3-0.1,2-0.5L63,19.2
	C62.2,19.5,61.3,19.7,60.3,19.7z M56,0.8c-1,0-1.8,0.8-1.8,1.8S55,4.4,56,4.4s1.8-0.8,1.8-1.8S57,0.8,56,0.8z M66.2,15.9
	c-1,0-1.8,0.8-1.8,1.8s0.8,1.8,1.8,1.8s1.8-0.8,1.8-1.8C68,16.7,67.2,15.9,66.2,15.9z M24,0.8c-1,0-1.8,0.8-1.8,1.8S23,4.4,24,4.4
	s1.8-0.8,1.8-1.8S25,0.8,24,0.8z"/>
</svg>
